<svg width="51" height="51" viewBox="0 0 51 51" fill="none" xmlns="http://www.w3.org/2000/svg">
<path fill-rule="evenodd" clip-rule="evenodd" d="M5.07355 0.529912C4.68297 0.139444 4.04972 0.139443 3.65914 0.529911L0.446377 3.74175C0.0557969 4.13222 0.0557978 4.76529 0.446378 5.15576L20.5615 25.2651L0.446405 45.3744C0.0558245 45.7648 0.0558236 46.3979 0.446404 46.7884L3.65916 50.0002C4.04974 50.3907 4.683 50.3907 5.07358 50.0002L25.1886 29.8909L45.3037 50.0002C45.6943 50.3907 46.3275 50.3907 46.7181 50.0002L49.9309 46.7884C50.3215 46.3979 50.3215 45.7648 49.9309 45.3744L29.8158 25.2651L49.9309 5.15576C50.3215 4.76529 50.3215 4.13222 49.9309 3.74175L46.7181 0.529911C46.3276 0.139443 45.6943 0.139444 45.3037 0.529912L25.1886 20.6392L5.07355 0.529912Z" fill="black"/>
</svg>
