<svg width="36" height="36" viewBox="0 0 36 36" fill="none" xmlns="http://www.w3.org/2000/svg">
<path fill-rule="evenodd" clip-rule="evenodd" d="M3.80456 0.674505C3.41455 0.283466 2.78222 0.283466 2.39222 0.674505L0.570094 2.50144C0.180086 2.89248 0.180086 3.52648 0.570095 3.91752L14.419 17.803L0.57011 31.6885C0.180102 32.0796 0.180101 32.7136 0.57011 33.1046L2.39223 34.9316C2.78224 35.3226 3.41457 35.3226 3.80458 34.9316L17.6535 21.046L31.5024 34.9316C31.8924 35.3226 32.5248 35.3226 32.9148 34.9316L34.7369 33.1046C35.1269 32.7136 35.1269 32.0796 34.7369 31.6885L20.888 17.803L34.7369 3.91752C35.1269 3.52648 35.1269 2.89248 34.7369 2.50144L32.9148 0.674505C32.5248 0.283466 31.8925 0.283466 31.5024 0.674505L17.6535 14.56L3.80456 0.674505Z" fill="black"/>
</svg>
